<svg xmlns="http://www.w3.org/2000/svg" viewBox="0 0 400 300">
<!-- SHADOW SIX title key art: emplacement fire (animated in CSS by .ka-fire). Ours. -->
<defs>
<radialGradient id="f1" cx=".5" cy=".85" r=".7"><stop offset="0" stop-color="#fff3c4"/><stop offset=".25" stop-color="#ffb347"/><stop offset=".6" stop-color="#e2561c"/><stop offset="1" stop-color="#6a1a08" stop-opacity="0"/></radialGradient>
<filter id="b"><feGaussianBlur stdDeviation="3"/></filter>
</defs>
<g filter="url(#b)">
<path d="M60 300 C40 230 110 210 100 150 C130 190 150 120 170 70 C190 140 230 110 225 40 C270 110 300 150 290 200 C320 180 330 150 330 130 C370 190 360 260 340 300 Z" fill="url(#f1)"/>
<path d="M120 300 C110 250 160 240 170 190 C190 230 210 200 220 160 C250 210 270 240 260 300 Z" fill="#fff0b8" opacity=".85"/>
</g>
</svg>
